<svg xmlns="http://www.w3.org/2000/svg" xmlns:xlink="http://www.w3.org/1999/xlink" id="Layer_1" viewBox="0 0 613.19 612.82"><defs><style>.cls-1{fill:#fff;}.cls-2{stroke-width:6.48px;}.cls-2,.cls-3{stroke:#010101;}.cls-2,.cls-3,.cls-4,.cls-5{stroke-miterlimit:10;}.cls-2,.cls-3,.cls-5,.cls-6{fill:none;}.cls-3{stroke-width:69.65px;}.cls-4{stroke-width:2.83px;}.cls-4,.cls-5{stroke:#fff;}.cls-4,.cls-7{fill:#010101;}.cls-5{stroke-width:7.98px;}.cls-8{clip-path:url(#clippath);}</style><clipPath id="clippath"><path class="cls-6" d="M516.85,304.48c0,117.06-94.9,211.96-211.96,211.96s-211.95-94.9-211.95-211.96S187.83,92.53,304.88,92.53s211.96,94.89,211.96,211.95Z"></path></clipPath></defs><path class="cls-2" d="M597.99,304.1c0,162.32-131.58,293.89-293.89,293.89S10.21,466.42,10.21,304.1,141.79,10.21,304.1,10.21s293.89,131.59,293.89,293.89Z"></path><path class="cls-3" d="M554.25,304.49c0,137.72-111.64,249.36-249.36,249.36S55.52,442.21,55.52,304.49,167.17,55.12,304.89,55.12s249.36,111.65,249.36,249.37Z"></path><g><path class="cls-1" d="M86.87,232.59c2.9,.93,3.85,2.95,2.85,6.06l-6.52,20.42-47.54-15.18,6.48-20.3c.97-3.03,2.91-4.07,5.82-3.14l12.24,3.91c1.62,.52,2.7,1.46,3.24,2.84,.07,.19,.43,1.77,1.07,4.73,2.31-2.12,3.55-3.24,3.74-3.34,1.33-.87,2.82-1.04,4.48-.51l14.12,4.51Zm-28.21-.33l-11.51-3.67-3.06,9.57,13.94,4.46,1.88-5.89-1.25-4.47Zm24.12,7.49l-13.55-4.32-3.51,3.02-1.92,6.01,15.85,5.06,3.12-9.77Z"></path><path class="cls-1" d="M104.85,204.1l-9.09,19.04-45.03-21.51,3.46-7.24,39.02,18.64,5.63-11.8,6.01,2.87Z"></path><path class="cls-1" d="M124.78,172.47l-4.38,6.64-8.79-3.87-5.54,8.39,7.02,6.57-4.37,6.61-.11-.07-35.87-36.13,4.65-7.04,47.39,18.91Zm-19.15,.18l-20.94-9.14,16.61,15.69,4.33-6.56Z"></path><path class="cls-1" d="M145.26,142.24c2.25,2.05,2.27,4.28,.07,6.7l-11.28,12.37c-2.14,2.35-4.33,2.5-6.58,.45l-30.12-27.45c-2.26-2.06-2.32-4.27-.18-6.62l11.28-12.37c2.2-2.42,4.44-2.59,6.7-.53l8.63,7.86-5.38,5.91-7.28-6.64-7,7.68,27.41,24.98,7-7.68-7.76-7.07,5.39-5.9,9.12,8.31Z"></path><path class="cls-1" d="M178.27,120.6l-6.92,5.52-21.85-11.05,13.88,17.4-6.27,5.01-31.12-39.01,6.28-5.01,13.16,16.5-6.19-22.07,6.86-5.48,.22,.28,6.24,25.32,25.7,12.58Z"></path><path class="cls-1" d="M241.69,90.47l-19.91,6.99-16.52-47.09,7.58-2.66,14.31,40.8,12.34-4.33,2.21,6.29Z"></path><path class="cls-1" d="M276.91,78.55c.54,2.99-.82,4.78-4.06,5.36l-16.78,3.02c-3.2,.57-5.07-.64-5.6-3.63l-8.02-44.63,7.9-1.42,7.69,42.81,10.64-1.91-7.69-42.81,7.9-1.42,8.01,44.63Z"></path><path class="cls-1" d="M316.31,81.93h-7.03s-12.93-31.37-12.93-31.37c.35,1.53,.52,2.73,.52,3.6l.05,27.81h-7.82s-.1-49.89-.1-49.89h7.03s12.92,30.73,12.92,30.73c-.35-1.53-.52-2.73-.52-3.6l-.05-27.17,7.82-.02,.09,49.9Z"></path><path class="cls-1" d="M354.56,83.05c-.53,2.99-2.4,4.21-5.62,3.64l-16.49-2.9c-3.13-.55-4.44-2.32-3.91-5.32l7.05-40.14c.53-3.01,2.36-4.25,5.49-3.7l16.49,2.9c3.22,.56,4.57,2.35,4.04,5.37l-2.02,11.49-7.87-1.38,1.7-9.7-10.24-1.8-6.41,36.53,10.24,1.8,1.81-10.33,7.87,1.38-2.14,12.16Z"></path><path class="cls-1" d="M390.18,99.61l-7.62-2.74,7.59-21.06-10.23-3.69-7.59,21.06-7.55-2.72,16.91-46.95,7.55,2.72-6.97,19.35,10.23,3.68,6.97-19.35,7.62,2.74-16.91,46.95Z"></path><path class="cls-1" d="M480.91,106.44l-6.92-5.52-26.98,33.87-6.25-4.98,26.99-33.87-6.92-5.51,4.11-5.16,20.1,16.02-4.11,5.16Z"></path><path class="cls-1" d="M479.56,166.54l-5.46-5.79,5.78-7.67-6.9-7.31-8,5.33-5.44-5.76,.09-.09,43.38-26.65,5.79,6.14-29.25,41.81Zm4.2-18.68l13.69-18.29-19.08,12.58,5.39,5.72Z"></path><path class="cls-1" d="M504.45,193.23c-2.49,1.74-4.67,1.27-6.54-1.42l-12.26-17.59,40.95-28.53,12.18,17.48c1.82,2.61,1.47,4.79-1.04,6.54l-10.55,7.35c-1.39,.97-2.8,1.25-4.22,.85-.2-.06-1.67-.74-4.41-2.03,.28,3.12,.41,4.79,.38,5-.11,1.59-.89,2.88-2.32,3.88l-12.17,8.47Zm-3.19-7.6l11.67-8.13-.27-4.62-3.61-5.18-13.66,9.52,5.86,8.42Zm20.6-14.61l9.92-6.91-5.75-8.25-12.01,8.37,3.53,5.07,4.31,1.72Z"></path><path class="cls-1" d="M516.21,224.84l-9.63-18.77,44.4-22.78,3.66,7.14-38.47,19.74,5.97,11.63-5.93,3.04Z"></path><path class="cls-1" d="M527.98,255.31l-7.65-20.91,46.87-17.13,7.58,20.72-6.2,2.27-4.81-13.18-13.69,5,4.15,11.34-6.08,2.22-4.15-11.34-14.71,5.38,4.89,13.37-6.2,2.27Z"></path></g><g><path class="cls-1" d="M197.46,553.82l-18.39-8.38,19.26-42.28,18.22,8.3-2.55,5.59-11.59-5.28-5.62,12.35,9.98,4.55-2.5,5.48-9.98-4.54-6.04,13.27,11.76,5.35-2.55,5.59Z"></path><path class="cls-1" d="M234.8,562.07c-.84,2.7-2.67,3.61-5.49,2.73l-14-4.37c-2.79-.87-3.77-2.66-2.93-5.36l3.3-10.57,6.95,2.17-2.82,9.04,8.5,2.65,2.71-8.7-10.01-16.93c-.72-1.24-.86-2.58-.41-4.02l3.08-9.86c.85-2.72,2.67-3.64,5.47-2.77l14,4.37c2.82,.88,3.8,2.66,2.96,5.34l-3.09,9.92-6.96-2.17,2.61-8.36-8.5-2.65-2.51,8.02,10.04,16.87c.73,1.22,.86,2.58,.39,4.08l-3.3,10.57Z"></path><path class="cls-1" d="M276.65,533.73l-7.91-1.41-7.09,39.69-7.14-1.28,7.09-39.69-7.91-1.41,1.08-6.05,22.96,4.1-1.08,6.05Z"></path><path class="cls-1" d="M326.66,542.29c.04,1.46-.45,3.1-1.47,4.91l-12.86,22.6,14.91-.35,.15,6.08-23.63,.56-.1-4.31,15.85-28.05-.2-8.58-8.87,.21,.2,8.63-7.13,.17-.24-10.33c-.07-2.81,1.39-4.25,4.36-4.32l14.29-.33c2.97-.07,4.49,1.3,4.55,4.11l.21,8.99Z"></path><path class="cls-1" d="M365.71,566.09c.46,2.79-.76,4.43-3.65,4.89l-15,2.44c-2.85,.47-4.5-.7-4.96-3.5l-6.1-37.44c-.46-2.81,.77-4.46,3.68-4.93l14.91-2.43c2.89-.47,4.56,.7,5.02,3.51l6.1,37.45Zm-7.31-.55l-5.55-34.08-9.5,1.55,5.55,34.08,9.5-1.55Z"></path><path class="cls-1" d="M403.67,555.29c.85,2.7-.12,4.49-2.9,5.37l-14.49,4.58c-2.75,.87-4.55-.04-5.41-2.74l-11.43-36.18c-.86-2.72,.12-4.52,2.93-5.41l14.4-4.55c2.79-.88,4.62,.03,5.48,2.75l11.43,36.17Zm-7.32,.51l-10.4-32.92-9.18,2.9,10.4,32.92,9.18-2.9Z"></path><path class="cls-1" d="M439.13,539.29c1.24,2.54,.53,4.46-2.12,5.75l-13.13,6.39c-2.59,1.26-4.51,.62-5.75-1.92l-4.69-9.64,6.44-3.13,3.93,8.09,8.12-3.95-7.82-16.07-14.56,7.09-9.2-20.68,19.99-9.73,2.67,5.47-13.92,6.78,4.21,9.71,10.67-5.19c2.65-1.29,4.59-.67,5.82,1.86l9.35,19.19Z"></path></g><g class="cls-8"><rect class="cls-7" x="-37.66" y="-143.84" width="652.39" height="802.2"></rect><g><path class="cls-4" d="M-31.19,143.88c0-16.14,9.91-29.23,22.13-29.23s22.12,13.08,22.12,29.23c0,6.77-1.75,13-4.67,17.95H-26.5c-2.94-4.95-4.69-11.18-4.69-17.95Z"></path><path class="cls-4" d="M20.88,96.34c0,16.89-13.69,30.59-30.58,30.59s-30.59-13.7-30.59-30.59,13.69-30.58,30.59-30.58,30.58,13.69,30.58,30.58Z"></path><path class="cls-4" d="M1.92,117.17c0,8.33-5.11,15.08-11.42,15.08s-11.4-6.76-11.4-15.08c0-3.49,.89-6.7,2.4-9.26H-.49c1.52,2.56,2.42,5.77,2.42,9.26Z"></path><path class="cls-4" d="M32.01,145.36c0-16.14,9.9-29.22,22.13-29.22s22.12,13.09,22.12,29.22c0,6.77-1.74,13-4.67,17.95H36.69c-2.94-4.95-4.68-11.18-4.68-17.95Z"></path><path class="cls-4" d="M84.08,97.83c0,16.88-13.69,30.59-30.59,30.59s-30.58-13.7-30.58-30.59,13.69-30.59,30.58-30.59,30.59,13.69,30.59,30.59Z"></path><path class="cls-4" d="M65.12,118.66c0,8.33-5.11,15.08-11.42,15.08s-11.42-6.75-11.42-15.08c0-3.49,.9-6.71,2.41-9.26h18.01c1.52,2.56,2.41,5.78,2.41,9.26Z"></path><path class="cls-4" d="M95.01,145.14c0-16.14,9.91-29.23,22.13-29.23s22.12,13.09,22.12,29.23c0,6.76-1.74,13-4.68,17.95h-34.88c-2.95-4.95-4.69-11.19-4.69-17.95Z"></path><path class="cls-4" d="M147.07,97.6c0,16.9-13.69,30.59-30.58,30.59s-30.58-13.69-30.58-30.59,13.69-30.58,30.58-30.58,30.58,13.69,30.58,30.58Z"></path><path class="cls-4" d="M128.12,118.43c0,8.33-5.11,15.09-11.42,15.09s-11.41-6.76-11.41-15.09c0-3.49,.9-6.71,2.41-9.25h18c1.51,2.55,2.41,5.76,2.41,9.25Z"></path><path class="cls-4" d="M158.27,146.75c0-16.14,9.9-29.23,22.13-29.23s22.11,13.09,22.11,29.23c0,6.76-1.74,13-4.67,17.95h-34.89c-2.95-4.95-4.68-11.18-4.68-17.95Z"></path><ellipse class="cls-4" cx="179.76" cy="99.21" rx="30.58" ry="30.59" transform="translate(-.64 1.17) rotate(-.37)"></ellipse><path class="cls-4" d="M191.39,120.04c0,8.33-5.12,15.08-11.42,15.08s-11.4-6.75-11.4-15.08c0-3.49,.89-6.71,2.4-9.26h18.01c1.51,2.55,2.42,5.77,2.42,9.26Z"></path><path class="cls-4" d="M221.27,146.53c0-16.14,9.91-29.23,22.13-29.23s22.12,13.09,22.12,29.23c0,6.76-1.74,13-4.68,17.95h-34.89c-2.94-4.95-4.68-11.19-4.68-17.95Z"></path><path class="cls-4" d="M273.34,98.99c0,16.9-13.7,30.59-30.59,30.59s-30.59-13.69-30.59-30.59,13.69-30.58,30.59-30.58,30.59,13.69,30.59,30.58Z"></path><path class="cls-4" d="M254.39,119.82c0,8.32-5.12,15.08-11.42,15.08s-11.42-6.75-11.42-15.08c0-3.5,.9-6.72,2.41-9.26h18.01c1.52,2.55,2.42,5.77,2.42,9.26Z"></path><path class="cls-4" d="M284.2,145.29c0-16.14,9.91-29.23,22.13-29.23s22.12,13.09,22.12,29.23c0,6.76-1.74,13-4.67,17.94h-34.89c-2.94-4.95-4.69-11.18-4.69-17.94Z"></path><path class="cls-4" d="M336.27,97.75c0,16.89-13.7,30.59-30.59,30.59s-30.58-13.7-30.58-30.59,13.7-30.59,30.58-30.59,30.59,13.7,30.59,30.59Z"></path><path class="cls-4" d="M317.31,118.58c0,8.33-5.11,15.08-11.42,15.08s-11.41-6.75-11.41-15.08c0-3.49,.9-6.71,2.41-9.26h18c1.52,2.55,2.42,5.77,2.42,9.26Z"></path><path class="cls-4" d="M347.39,146.78c0-16.14,9.91-29.23,22.13-29.23s22.11,13.08,22.11,29.23c0,6.76-1.74,13-4.67,17.94h-34.89c-2.94-4.94-4.68-11.18-4.68-17.94Z"></path><path class="cls-4" d="M399.47,99.24c0,16.89-13.7,30.58-30.58,30.58s-30.59-13.69-30.59-30.58,13.69-30.59,30.59-30.59,30.58,13.7,30.58,30.59Z"></path><path class="cls-4" d="M380.51,120.07c0,8.33-5.11,15.08-11.42,15.08s-11.41-6.75-11.41-15.08c0-3.49,.89-6.71,2.4-9.26h18.01c1.53,2.56,2.42,5.77,2.42,9.26Z"></path><path class="cls-4" d="M410.39,146.55c0-16.14,9.91-29.23,22.13-29.23s22.12,13.09,22.12,29.23c0,6.76-1.74,13-4.67,17.95h-34.89c-2.94-4.95-4.68-11.19-4.68-17.95Z"></path><path class="cls-4" d="M462.46,99.01c0,16.9-13.69,30.59-30.58,30.59s-30.59-13.69-30.59-30.59,13.7-30.58,30.59-30.58,30.58,13.69,30.58,30.58Z"></path><path class="cls-4" d="M443.51,119.85c0,8.33-5.11,15.08-11.42,15.08s-11.41-6.75-11.41-15.08c0-3.49,.89-6.71,2.41-9.26h18.01c1.52,2.55,2.41,5.77,2.41,9.26Z"></path><path class="cls-4" d="M473.66,148.16c0-16.14,9.91-29.23,22.13-29.23s22.11,13.09,22.11,29.23c0,6.76-1.74,13-4.67,17.95h-34.89c-2.94-4.95-4.68-11.19-4.68-17.95Z"></path><path class="cls-4" d="M525.73,100.62c0,16.89-13.7,30.59-30.58,30.59s-30.59-13.7-30.59-30.59,13.69-30.58,30.59-30.58,30.58,13.69,30.58,30.58Z"></path><path class="cls-4" d="M506.78,121.46c0,8.33-5.11,15.08-11.42,15.08s-11.41-6.75-11.41-15.08c0-3.49,.89-6.72,2.4-9.26h18.01c1.52,2.55,2.42,5.77,2.42,9.26Z"></path><path class="cls-4" d="M536.66,147.94c0-16.15,9.91-29.24,22.13-29.24s22.12,13.09,22.12,29.24c0,6.75-1.75,13-4.67,17.94h-34.89c-2.95-4.95-4.69-11.19-4.69-17.94Z"></path><path class="cls-4" d="M588.73,100.4c0,16.9-13.69,30.59-30.58,30.59s-30.59-13.69-30.59-30.59,13.69-30.58,30.59-30.58,30.58,13.69,30.58,30.58Z"></path><path class="cls-4" d="M569.78,121.23c0,8.33-5.11,15.09-11.42,15.09s-11.41-6.76-11.41-15.09c0-3.49,.89-6.71,2.41-9.26h18c1.52,2.55,2.42,5.77,2.42,9.26Z"></path></g><g><path class="cls-4" d="M-1.49,217.41c0-16.14,9.91-29.22,22.12-29.22s22.12,13.09,22.12,29.22c0,6.77-1.74,13-4.67,17.95H3.19c-2.94-4.95-4.68-11.19-4.68-17.95Z"></path><path class="cls-4" d="M50.58,169.87c0,16.89-13.7,30.59-30.59,30.59s-30.59-13.7-30.59-30.59,13.69-30.59,30.59-30.59,30.59,13.69,30.59,30.59Z"></path><path class="cls-4" d="M31.63,190.7c0,8.33-5.12,15.08-11.42,15.08s-11.42-6.75-11.42-15.08c0-3.49,.9-6.71,2.41-9.26H29.2c1.53,2.56,2.42,5.78,2.42,9.26Z"></path><path class="cls-4" d="M61.7,218.9c0-16.14,9.91-29.23,22.13-29.23s22.12,13.09,22.12,29.23c0,6.76-1.74,13-4.67,17.94h-34.89c-2.94-4.94-4.69-11.18-4.69-17.94Z"></path><path class="cls-4" d="M113.77,171.37c0,16.89-13.69,30.58-30.59,30.58s-30.59-13.69-30.59-30.58,13.69-30.59,30.59-30.59,30.59,13.7,30.59,30.59Z"></path><path class="cls-4" d="M94.81,192.19c0,8.33-5.11,15.08-11.42,15.08s-11.41-6.75-11.41-15.08c0-3.48,.9-6.71,2.41-9.26h18c1.52,2.55,2.42,5.77,2.42,9.26Z"></path><path class="cls-4" d="M124.7,218.67c0-16.14,9.9-29.23,22.13-29.23s22.11,13.09,22.11,29.23c0,6.76-1.74,13-4.67,17.95h-34.89c-2.95-4.95-4.68-11.18-4.68-17.95Z"></path><path class="cls-4" d="M176.77,171.14c0,16.89-13.7,30.59-30.59,30.59s-30.59-13.7-30.59-30.59,13.69-30.59,30.59-30.59,30.59,13.69,30.59,30.59Z"></path><path class="cls-4" d="M157.81,191.97c0,8.33-5.11,15.08-11.42,15.08s-11.41-6.75-11.41-15.08c0-3.48,.89-6.71,2.41-9.26h18.01c1.52,2.55,2.41,5.77,2.41,9.26Z"></path><path class="cls-4" d="M187.97,220.28c0-16.14,9.91-29.23,22.13-29.23s22.11,13.08,22.11,29.23c0,6.76-1.74,13-4.67,17.95h-34.89c-2.94-4.94-4.69-11.19-4.69-17.95Z"></path><path class="cls-4" d="M240.04,172.74c0,16.9-13.7,30.59-30.59,30.59s-30.59-13.7-30.59-30.59,13.7-30.58,30.59-30.58,30.59,13.69,30.59,30.58Z"></path><path class="cls-4" d="M221.08,193.57c0,8.33-5.11,15.08-11.42,15.08s-11.41-6.76-11.41-15.08c0-3.49,.89-6.71,2.41-9.26h18.01c1.52,2.55,2.41,5.77,2.41,9.26Z"></path><path class="cls-4" d="M250.97,220.06c0-16.14,9.9-29.23,22.12-29.23s22.12,13.09,22.12,29.23c0,6.76-1.74,13-4.68,17.95h-34.88c-2.94-4.95-4.68-11.19-4.68-17.95Z"></path><path class="cls-4" d="M303.04,172.52c0,16.89-13.7,30.58-30.59,30.58s-30.58-13.69-30.58-30.58,13.69-30.59,30.58-30.59,30.59,13.7,30.59,30.59Z"></path><path class="cls-4" d="M284.09,193.35c0,8.33-5.12,15.09-11.42,15.09s-11.41-6.76-11.41-15.09c0-3.49,.9-6.71,2.41-9.26h18.01c1.52,2.55,2.42,5.77,2.42,9.26Z"></path><path class="cls-4" d="M313.9,218.82c0-16.14,9.9-29.23,22.12-29.23s22.12,13.09,22.12,29.23c0,6.76-1.75,13-4.67,17.94h-34.89c-2.94-4.94-4.68-11.18-4.68-17.94Z"></path><ellipse class="cls-4" cx="335.38" cy="171.28" rx="30.59" ry="30.58" transform="translate(-1.06 2.1) rotate(-.36)"></ellipse><path class="cls-4" d="M347.01,192.11c0,8.32-5.11,15.08-11.42,15.08s-11.41-6.76-11.41-15.08c0-3.49,.9-6.71,2.41-9.26h18c1.52,2.55,2.42,5.77,2.42,9.26Z"></path><path class="cls-4" d="M377.09,220.31c0-16.14,9.9-29.23,22.13-29.23s22.12,13.09,22.12,29.23c0,6.77-1.74,13-4.67,17.95h-34.89c-2.94-4.95-4.68-11.18-4.68-17.95Z"></path><path class="cls-4" d="M429.16,172.77c0,16.89-13.69,30.59-30.59,30.59s-30.58-13.7-30.58-30.59,13.7-30.59,30.58-30.59,30.59,13.7,30.59,30.59Z"></path><path class="cls-4" d="M410.2,193.6c0,8.33-5.11,15.09-11.42,15.09s-11.41-6.76-11.41-15.09c0-3.49,.9-6.71,2.41-9.25h18.01c1.52,2.55,2.42,5.76,2.42,9.25Z"></path><path class="cls-4" d="M440.09,220.09c0-16.15,9.91-29.24,22.13-29.24s22.11,13.09,22.11,29.24c0,6.76-1.74,12.99-4.67,17.94h-34.89c-2.94-4.95-4.68-11.18-4.68-17.94Z"></path><path class="cls-4" d="M492.16,172.55c0,16.89-13.7,30.59-30.59,30.59s-30.58-13.7-30.58-30.59,13.7-30.58,30.58-30.58,30.59,13.69,30.59,30.58Z"></path><path class="cls-4" d="M473.21,193.38c0,8.32-5.12,15.08-11.42,15.08s-11.41-6.75-11.41-15.08c0-3.5,.9-6.71,2.41-9.26h18.01c1.52,2.55,2.42,5.77,2.42,9.26Z"></path><path class="cls-4" d="M503.36,221.69c0-16.14,9.91-29.22,22.13-29.22s22.12,13.09,22.12,29.22c0,6.76-1.75,13-4.67,17.95h-34.89c-2.94-4.95-4.68-11.19-4.68-17.95Z"></path><path class="cls-4" d="M555.42,174.16c0,16.89-13.69,30.58-30.58,30.58s-30.59-13.69-30.59-30.58,13.7-30.59,30.59-30.59,30.58,13.7,30.58,30.59Z"></path><path class="cls-4" d="M536.47,194.99c0,8.33-5.11,15.08-11.41,15.08s-11.41-6.75-11.41-15.08c0-3.49,.9-6.71,2.41-9.26h18.01c1.52,2.55,2.41,5.77,2.41,9.26Z"></path><path class="cls-4" d="M566.36,221.47c0-16.14,9.9-29.24,22.13-29.24s22.11,13.09,22.11,29.24c0,6.76-1.75,13-4.67,17.95h-34.89c-2.95-4.95-4.68-11.19-4.68-17.95Z"></path><path class="cls-4" d="M618.43,173.94c0,16.89-13.7,30.59-30.59,30.59s-30.58-13.7-30.58-30.59,13.69-30.59,30.58-30.59,30.59,13.69,30.59,30.59Z"></path><path class="cls-4" d="M599.47,194.77c0,8.33-5.11,15.08-11.42,15.08s-11.41-6.75-11.41-15.08c0-3.49,.89-6.71,2.4-9.26h18.01c1.52,2.55,2.42,5.77,2.42,9.26Z"></path></g><g><path class="cls-4" d="M-33.74,287.93c0-16.14,9.91-29.22,22.13-29.22s22.12,13.08,22.12,29.22c0,6.77-1.74,13-4.67,17.95H-29.06c-2.94-4.95-4.68-11.18-4.68-17.95Z"></path><path class="cls-4" d="M18.33,240.39c0,16.9-13.7,30.59-30.59,30.59s-30.59-13.7-30.59-30.59,13.7-30.58,30.59-30.58,30.59,13.69,30.59,30.58Z"></path><path class="cls-4" d="M-.63,261.22c0,8.33-5.11,15.08-11.42,15.08s-11.42-6.76-11.42-15.08c0-3.49,.9-6.71,2.41-9.26H-3.05c1.53,2.56,2.42,5.77,2.42,9.26Z"></path><path class="cls-4" d="M29.45,289.41c0-16.14,9.91-29.23,22.13-29.23s22.12,13.09,22.12,29.23c0,6.77-1.74,13-4.67,17.95H34.13c-2.94-4.95-4.68-11.18-4.68-17.95Z"></path><path class="cls-4" d="M81.52,241.88c0,16.89-13.69,30.59-30.59,30.59s-30.59-13.7-30.59-30.59,13.7-30.59,30.59-30.59,30.59,13.7,30.59,30.59Z"></path><path class="cls-4" d="M62.56,262.71c0,8.33-5.11,15.08-11.42,15.08s-11.41-6.75-11.41-15.08c0-3.49,.9-6.71,2.41-9.26h18c1.52,2.55,2.42,5.78,2.42,9.26Z"></path><path class="cls-4" d="M92.45,289.2c0-16.14,9.91-29.23,22.13-29.23s22.11,13.09,22.11,29.23c0,6.76-1.74,13-4.67,17.94h-34.89c-2.94-4.95-4.68-11.18-4.68-17.94Z"></path><path class="cls-4" d="M144.52,241.65c0,16.9-13.7,30.59-30.58,30.59s-30.59-13.69-30.59-30.59,13.69-30.58,30.59-30.58,30.58,13.69,30.58,30.58Z"></path><path class="cls-4" d="M125.56,262.49c0,8.33-5.11,15.08-11.42,15.08s-11.41-6.75-11.41-15.08c0-3.49,.89-6.71,2.4-9.26h18.01c1.52,2.56,2.42,5.77,2.42,9.26Z"></path><path class="cls-4" d="M155.71,290.8c0-16.14,9.91-29.23,22.13-29.23s22.12,13.09,22.12,29.23c0,6.76-1.74,13-4.67,17.95h-34.89c-2.94-4.95-4.69-11.19-4.69-17.95Z"></path><ellipse class="cls-4" cx="177.2" cy="243.26" rx="30.58" ry="30.59" transform="translate(-1.58 1.16) rotate(-.37)"></ellipse><path class="cls-4" d="M188.83,264.1c0,8.33-5.11,15.08-11.42,15.08s-11.41-6.76-11.41-15.08c0-3.49,.89-6.71,2.41-9.26h18c1.52,2.55,2.42,5.77,2.42,9.26Z"></path><path class="cls-4" d="M218.72,290.58c0-16.14,9.91-29.23,22.13-29.23s22.12,13.09,22.12,29.23c0,6.75-1.74,13-4.67,17.94h-34.89c-2.94-4.94-4.68-11.18-4.68-17.94Z"></path><path class="cls-4" d="M270.79,243.04c0,16.9-13.69,30.58-30.59,30.58s-30.58-13.69-30.58-30.58,13.69-30.59,30.58-30.59,30.59,13.69,30.59,30.59Z"></path><path class="cls-4" d="M251.83,263.87c0,8.33-5.12,15.08-11.42,15.08s-11.41-6.75-11.41-15.08c0-3.5,.9-6.71,2.41-9.26h18.01c1.52,2.55,2.42,5.77,2.42,9.26Z"></path><path class="cls-4" d="M281.65,289.34c0-16.14,9.91-29.23,22.13-29.23s22.11,13.09,22.11,29.23c0,6.76-1.73,13-4.67,17.94h-34.88c-2.95-4.95-4.69-11.18-4.69-17.94Z"></path><path class="cls-4" d="M333.72,241.81c0,16.89-13.7,30.59-30.58,30.59s-30.59-13.7-30.59-30.59,13.69-30.59,30.59-30.59,30.58,13.7,30.58,30.59Z"></path><path class="cls-4" d="M314.76,262.63c0,8.32-5.11,15.08-11.42,15.08s-11.41-6.76-11.41-15.08c0-3.49,.9-6.71,2.41-9.26h18c1.52,2.55,2.42,5.77,2.42,9.26Z"></path><path class="cls-4" d="M344.84,290.83c0-16.15,9.9-29.23,22.13-29.23s22.11,13.08,22.11,29.23c0,6.76-1.74,13-4.67,17.94h-34.89c-2.94-4.94-4.68-11.18-4.68-17.94Z"></path><path class="cls-4" d="M396.91,243.29c0,16.9-13.69,30.59-30.59,30.59s-30.58-13.69-30.58-30.59,13.69-30.58,30.58-30.58,30.59,13.69,30.59,30.58Z"></path><path class="cls-4" d="M377.96,264.12c0,8.33-5.12,15.08-11.42,15.08s-11.41-6.75-11.41-15.08c0-3.49,.9-6.71,2.41-9.26h18.01c1.52,2.55,2.42,5.77,2.42,9.26Z"></path><path class="cls-4" d="M407.84,290.61c0-16.14,9.9-29.23,22.13-29.23s22.12,13.09,22.12,29.23c0,6.76-1.75,13-4.68,17.95h-34.89c-2.94-4.95-4.68-11.19-4.68-17.95Z"></path><path class="cls-4" d="M459.91,243.07c0,16.89-13.69,30.58-30.58,30.58s-30.59-13.69-30.59-30.58,13.69-30.59,30.59-30.59,30.58,13.69,30.58,30.59Z"></path><path class="cls-4" d="M440.96,263.9c0,8.33-5.12,15.08-11.42,15.08s-11.41-6.75-11.41-15.08c0-3.49,.89-6.71,2.4-9.26h18.01c1.51,2.56,2.42,5.77,2.42,9.26Z"></path><path class="cls-4" d="M471.11,292.21c0-16.14,9.91-29.23,22.13-29.23s22.11,13.09,22.11,29.23c0,6.76-1.74,13-4.67,17.95h-34.89c-2.94-4.95-4.68-11.18-4.68-17.95Z"></path><path class="cls-4" d="M523.18,244.68c0,16.89-13.7,30.59-30.59,30.59s-30.58-13.7-30.58-30.59,13.7-30.59,30.58-30.59,30.59,13.69,30.59,30.59Z"></path><path class="cls-4" d="M504.22,265.51c0,8.33-5.11,15.08-11.42,15.08s-11.41-6.75-11.41-15.08c0-3.49,.9-6.71,2.41-9.26h18.01c1.52,2.55,2.42,5.77,2.42,9.26Z"></path><path class="cls-4" d="M534.11,291.99c0-16.14,9.9-29.23,22.13-29.23s22.12,13.09,22.12,29.23c0,6.76-1.75,13-4.67,17.95h-34.89c-2.94-4.95-4.68-11.19-4.68-17.95Z"></path><path class="cls-4" d="M586.18,244.45c0,16.9-13.69,30.59-30.58,30.59s-30.59-13.69-30.59-30.59,13.69-30.59,30.59-30.59,30.58,13.7,30.58,30.59Z"></path><path class="cls-4" d="M567.22,265.28c0,8.33-5.12,15.08-11.42,15.08s-11.41-6.75-11.41-15.08c0-3.49,.9-6.71,2.41-9.26h18.01c1.52,2.56,2.42,5.77,2.42,9.26Z"></path></g><g><path class="cls-4" d="M-4.38,361.4c0-16.14,9.91-29.23,22.13-29.23s22.11,13.09,22.11,29.23c0,6.76-1.74,13-4.67,17.95H.3c-2.94-4.95-4.68-11.18-4.68-17.95Z"></path><path class="cls-4" d="M47.69,313.86c0,16.89-13.69,30.59-30.58,30.59s-30.59-13.69-30.59-30.59,13.7-30.59,30.59-30.59,30.58,13.69,30.58,30.59Z"></path><path class="cls-4" d="M28.73,334.69c0,8.34-5.11,15.09-11.42,15.09s-11.41-6.75-11.41-15.09c0-3.48,.89-6.7,2.41-9.26H26.32c1.51,2.55,2.41,5.78,2.41,9.26Z"></path><path class="cls-4" d="M58.81,362.9c0-16.15,9.91-29.23,22.14-29.23s22.12,13.09,22.12,29.23c0,6.75-1.74,12.99-4.67,17.94H63.5c-2.94-4.95-4.69-11.19-4.69-17.94Z"></path><path class="cls-4" d="M110.88,315.35c0,16.9-13.69,30.59-30.59,30.59s-30.58-13.69-30.58-30.59,13.69-30.58,30.58-30.58,30.59,13.69,30.59,30.58Z"></path><path class="cls-4" d="M91.93,336.18c0,8.32-5.11,15.08-11.42,15.08s-11.41-6.75-11.41-15.08c0-3.49,.9-6.7,2.41-9.26h18.01c1.52,2.56,2.42,5.77,2.42,9.26Z"></path><path class="cls-4" d="M121.81,362.67c0-16.14,9.91-29.23,22.13-29.23s22.12,13.08,22.12,29.23c0,6.76-1.74,13-4.67,17.95h-34.89c-2.94-4.95-4.68-11.18-4.68-17.95Z"></path><path class="cls-4" d="M173.88,315.13c0,16.89-13.69,30.58-30.59,30.58s-30.58-13.69-30.58-30.58,13.69-30.59,30.58-30.59,30.59,13.69,30.59,30.59Z"></path><path class="cls-4" d="M154.93,335.96c0,8.33-5.12,15.08-11.42,15.08s-11.42-6.75-11.42-15.08c0-3.49,.9-6.71,2.42-9.26h18c1.51,2.56,2.42,5.77,2.42,9.26Z"></path><path class="cls-4" d="M185.08,364.28c0-16.14,9.91-29.23,22.13-29.23s22.11,13.08,22.11,29.23c0,6.76-1.74,13-4.67,17.95h-34.88c-2.95-4.95-4.69-11.18-4.69-17.95Z"></path><path class="cls-4" d="M237.15,316.74c0,16.89-13.69,30.58-30.58,30.58s-30.59-13.69-30.59-30.58,13.7-30.59,30.59-30.59,30.58,13.7,30.58,30.59Z"></path><path class="cls-4" d="M218.19,337.57c0,8.33-5.11,15.08-11.42,15.08s-11.41-6.75-11.41-15.08c0-3.49,.9-6.71,2.41-9.26h18.01c1.52,2.56,2.42,5.77,2.42,9.26Z"></path><path class="cls-4" d="M248.08,364.05c0-16.14,9.9-29.23,22.13-29.23s22.11,13.09,22.11,29.23c0,6.76-1.74,13-4.67,17.95h-34.89c-2.94-4.95-4.68-11.19-4.68-17.95Z"></path><path class="cls-4" d="M300.15,316.51c0,16.89-13.7,30.59-30.58,30.59s-30.59-13.69-30.59-30.59,13.69-30.58,30.59-30.58,30.58,13.69,30.58,30.58Z"></path><path class="cls-4" d="M281.19,337.34c0,8.33-5.11,15.09-11.42,15.09s-11.41-6.76-11.41-15.09c0-3.49,.9-6.7,2.41-9.26h18c1.52,2.56,2.42,5.77,2.42,9.26Z"></path><path class="cls-4" d="M311,362.81c0-16.14,9.91-29.22,22.13-29.22s22.12,13.09,22.12,29.22c0,6.77-1.75,13-4.67,17.95h-34.89c-2.94-4.95-4.69-11.18-4.69-17.95Z"></path><path class="cls-4" d="M363.08,315.27c0,16.9-13.7,30.59-30.58,30.59s-30.59-13.69-30.59-30.59,13.69-30.58,30.59-30.58,30.58,13.69,30.58,30.58Z"></path><path class="cls-4" d="M344.12,336.1c0,8.33-5.11,15.08-11.42,15.08s-11.41-6.76-11.41-15.08c0-3.49,.9-6.71,2.41-9.26h18c1.52,2.56,2.42,5.77,2.42,9.26Z"></path><path class="cls-4" d="M374.2,364.3c0-16.14,9.91-29.23,22.13-29.23s22.11,13.09,22.11,29.23c0,6.76-1.74,13-4.67,17.95h-34.89c-2.94-4.95-4.68-11.19-4.68-17.95Z"></path><path class="cls-4" d="M426.27,316.77c0,16.89-13.69,30.59-30.59,30.59s-30.58-13.7-30.58-30.59,13.7-30.59,30.58-30.59,30.59,13.69,30.59,30.59Z"></path><path class="cls-4" d="M407.31,337.6c0,8.33-5.11,15.08-11.41,15.08s-11.42-6.75-11.42-15.08c0-3.49,.9-6.71,2.41-9.27h18.01c1.52,2.56,2.42,5.77,2.42,9.27Z"></path><path class="cls-4" d="M437.2,364.08c0-16.15,9.91-29.24,22.13-29.24s22.12,13.09,22.12,29.24c0,6.76-1.75,12.99-4.67,17.94h-34.89c-2.94-4.95-4.68-11.19-4.68-17.94Z"></path><path class="cls-4" d="M489.27,316.54c0,16.89-13.7,30.59-30.59,30.59s-30.58-13.69-30.58-30.59,13.7-30.58,30.58-30.58,30.59,13.69,30.59,30.58Z"></path><path class="cls-4" d="M470.32,337.37c0,8.33-5.11,15.09-11.42,15.09s-11.41-6.75-11.41-15.09c0-3.49,.9-6.71,2.41-9.25h18.01c1.51,2.55,2.42,5.76,2.42,9.25Z"></path><path class="cls-4" d="M500.47,365.69c0-16.14,9.91-29.23,22.13-29.23s22.11,13.09,22.11,29.23c0,6.76-1.74,13-4.67,17.94h-34.89c-2.95-4.95-4.69-11.19-4.69-17.94Z"></path><path class="cls-4" d="M552.53,318.15c0,16.9-13.69,30.59-30.58,30.59s-30.59-13.69-30.59-30.59,13.7-30.58,30.59-30.58,30.58,13.69,30.58,30.58Z"></path><path class="cls-4" d="M533.58,338.98c0,8.33-5.11,15.08-11.42,15.08s-11.41-6.75-11.41-15.08c0-3.49,.9-6.7,2.41-9.26h18.01c1.52,2.56,2.42,5.77,2.42,9.26Z"></path><path class="cls-4" d="M563.47,365.46c0-16.14,9.91-29.22,22.13-29.22s22.11,13.09,22.11,29.22c0,6.77-1.74,13-4.67,17.95h-34.89c-2.94-4.95-4.68-11.19-4.68-17.95Z"></path><path class="cls-4" d="M615.54,317.93c0,16.89-13.69,30.58-30.58,30.58s-30.59-13.69-30.59-30.58,13.7-30.59,30.59-30.59,30.58,13.7,30.58,30.59Z"></path><path class="cls-4" d="M596.58,338.76c0,8.33-5.12,15.08-11.42,15.08s-11.41-6.75-11.41-15.08c0-3.49,.9-6.71,2.41-9.26h18.01c1.51,2.55,2.42,5.77,2.42,9.26Z"></path></g><g><path class="cls-4" d="M-36.26,432.57c0-16.14,9.91-29.23,22.13-29.23s22.12,13.09,22.12,29.23c0,6.77-1.74,13-4.67,17.95H-31.58c-2.94-4.95-4.68-11.18-4.68-17.95Z"></path><path class="cls-4" d="M15.81,385.04c0,16.89-13.69,30.59-30.59,30.59s-30.58-13.7-30.58-30.59,13.69-30.59,30.58-30.59,30.59,13.7,30.59,30.59Z"></path><path class="cls-4" d="M26.93,434.06c0-16.14,9.91-29.22,22.13-29.22s22.11,13.08,22.11,29.22c0,6.76-1.74,13-4.67,17.95H31.61c-2.94-4.94-4.68-11.18-4.68-17.95Z"></path><path class="cls-4" d="M79,386.53c0,16.89-13.69,30.59-30.59,30.59s-30.59-13.69-30.59-30.59,13.69-30.59,30.59-30.59,30.59,13.7,30.59,30.59Z"></path><path class="cls-4" d="M60.04,407.36c0,8.33-5.11,15.07-11.41,15.07s-11.42-6.74-11.42-15.07c0-3.5,.89-6.72,2.41-9.27h18.01c1.52,2.55,2.42,5.77,2.42,9.27Z"></path><path class="cls-4" d="M89.93,433.84c0-16.14,9.91-29.22,22.13-29.22s22.11,13.09,22.11,29.22c0,6.76-1.74,13-4.67,17.95h-34.89c-2.94-4.95-4.68-11.19-4.68-17.95Z"></path><path class="cls-4" d="M142,386.3c0,16.89-13.7,30.59-30.59,30.59s-30.59-13.69-30.59-30.59,13.69-30.59,30.59-30.59,30.59,13.69,30.59,30.59Z"></path><path class="cls-4" d="M123.05,407.13c0,8.33-5.11,15.08-11.42,15.08s-11.41-6.75-11.41-15.08c0-3.5,.9-6.71,2.41-9.26h18.01c1.52,2.56,2.42,5.77,2.42,9.26Z"></path><path class="cls-4" d="M153.2,435.45c0-16.14,9.91-29.23,22.13-29.23s22.12,13.09,22.12,29.23c0,6.76-1.74,13-4.67,17.95h-34.89c-2.94-4.95-4.68-11.19-4.68-17.95Z"></path><path class="cls-4" d="M205.27,387.91c0,16.9-13.7,30.59-30.59,30.59s-30.59-13.7-30.59-30.59,13.7-30.58,30.59-30.58,30.59,13.7,30.59,30.58Z"></path><path class="cls-4" d="M186.31,408.74c0,8.33-5.11,15.08-11.42,15.08s-11.41-6.75-11.41-15.08c0-3.49,.9-6.71,2.41-9.26h18.01c1.52,2.55,2.41,5.77,2.41,9.26Z"></path><path class="cls-4" d="M216.2,435.22c0-16.15,9.91-29.23,22.12-29.23s22.12,13.08,22.12,29.23c0,6.76-1.74,13-4.68,17.95h-34.88c-2.94-4.95-4.68-11.19-4.68-17.95Z"></path><path class="cls-4" d="M268.27,387.68c0,16.9-13.7,30.59-30.59,30.59s-30.58-13.69-30.58-30.59,13.69-30.58,30.58-30.58,30.59,13.69,30.59,30.58Z"></path><path class="cls-4" d="M249.32,408.52c0,8.33-5.12,15.08-11.42,15.08s-11.41-6.75-11.41-15.08c0-3.5,.9-6.71,2.41-9.26h18.01c1.52,2.56,2.42,5.77,2.42,9.26Z"></path><path class="cls-4" d="M279.13,433.99c0-16.14,9.9-29.23,22.13-29.23s22.11,13.09,22.11,29.23c0,6.76-1.75,13-4.67,17.95h-34.89c-2.95-4.95-4.68-11.18-4.68-17.95Z"></path><path class="cls-4" d="M331.2,386.45c0,16.89-13.69,30.59-30.59,30.59s-30.59-13.7-30.59-30.59,13.69-30.59,30.59-30.59,30.59,13.7,30.59,30.59Z"></path><path class="cls-4" d="M312.24,407.28c0,8.33-5.11,15.08-11.42,15.08s-11.41-6.75-11.41-15.08c0-3.49,.9-6.71,2.4-9.26h18c1.52,2.56,2.42,5.77,2.42,9.26Z"></path><path class="cls-4" d="M342.32,435.48c0-16.15,9.9-29.23,22.13-29.23s22.11,13.09,22.11,29.23c0,6.76-1.74,13-4.67,17.94h-34.89c-2.94-4.94-4.68-11.18-4.68-17.94Z"></path><path class="cls-4" d="M394.39,387.94c0,16.9-13.69,30.59-30.59,30.59s-30.58-13.69-30.58-30.59,13.69-30.58,30.58-30.58,30.59,13.69,30.59,30.58Z"></path><path class="cls-4" d="M375.43,408.77c0,8.32-5.11,15.08-11.42,15.08s-11.41-6.76-11.41-15.08c0-3.49,.9-6.71,2.42-9.26h18c1.52,2.56,2.42,5.77,2.42,9.26Z"></path><path class="cls-4" d="M405.32,435.26c0-16.14,9.91-29.24,22.13-29.24s22.12,13.09,22.12,29.24c0,6.76-1.75,13-4.67,17.94h-34.89c-2.95-4.95-4.68-11.19-4.68-17.94Z"></path><path class="cls-4" d="M457.39,387.71c0,16.9-13.7,30.59-30.59,30.59s-30.58-13.69-30.58-30.59,13.69-30.58,30.58-30.58,30.59,13.69,30.59,30.58Z"></path><path class="cls-4" d="M438.44,408.55c0,8.33-5.12,15.08-11.42,15.08s-11.41-6.75-11.41-15.08c0-3.49,.89-6.71,2.41-9.26h18c1.52,2.56,2.42,5.77,2.42,9.26Z"></path><path class="cls-4" d="M468.59,436.86c0-16.15,9.91-29.23,22.13-29.23s22.11,13.08,22.11,29.23c0,6.76-1.74,12.99-4.67,17.94h-34.89c-2.94-4.95-4.68-11.18-4.68-17.94Z"></path><path class="cls-4" d="M520.66,389.32c0,16.89-13.7,30.58-30.58,30.58s-30.59-13.69-30.59-30.58,13.7-30.59,30.59-30.59,30.58,13.69,30.58,30.59Z"></path><path class="cls-4" d="M501.7,410.15c0,8.33-5.11,15.08-11.41,15.08s-11.42-6.74-11.42-15.08c0-3.5,.9-6.71,2.41-9.26h18.01c1.52,2.55,2.42,5.76,2.42,9.26Z"></path><path class="cls-4" d="M531.59,436.63c0-16.14,9.91-29.22,22.13-29.22s22.11,13.08,22.11,29.22c0,6.77-1.74,13-4.67,17.95h-34.89c-2.94-4.95-4.68-11.19-4.68-17.95Z"></path><path class="cls-4" d="M583.66,389.1c0,16.89-13.7,30.58-30.59,30.58s-30.59-13.69-30.59-30.58,13.7-30.59,30.59-30.59,30.59,13.69,30.59,30.59Z"></path><path class="cls-4" d="M564.7,409.93c0,8.33-5.12,15.09-11.42,15.09s-11.41-6.76-11.41-15.09c0-3.49,.9-6.71,2.41-9.26h18.01c1.52,2.55,2.42,5.77,2.42,9.26Z"></path></g><g><path class="cls-4" d="M-3.27,505.16c0-16.14,9.91-29.23,22.13-29.23s22.11,13.09,22.11,29.23c0,6.76-1.75,12.99-4.67,17.94H1.42c-2.94-4.95-4.68-11.18-4.68-17.94Z"></path><path class="cls-4" d="M48.8,457.62c0,16.89-13.69,30.59-30.59,30.59s-30.59-13.7-30.59-30.59,13.7-30.59,30.59-30.59,30.59,13.69,30.59,30.59Z"></path><path class="cls-4" d="M29.85,478.45c0,8.33-5.11,15.08-11.42,15.08s-11.41-6.75-11.41-15.08c0-3.49,.9-6.71,2.4-9.26H27.43c1.52,2.55,2.41,5.77,2.41,9.26Z"></path><path class="cls-4" d="M59.92,506.65c0-16.14,9.91-29.22,22.13-29.22s22.11,13.09,22.11,29.22c0,6.76-1.74,13-4.67,17.95h-34.89c-2.94-4.95-4.68-11.18-4.68-17.95Z"></path><path class="cls-4" d="M111.99,459.11c0,16.89-13.69,30.59-30.59,30.59s-30.59-13.69-30.59-30.59,13.7-30.59,30.59-30.59,30.59,13.7,30.59,30.59Z"></path><path class="cls-4" d="M93.04,479.94c0,8.33-5.11,15.08-11.42,15.08s-11.41-6.76-11.41-15.08c0-3.49,.9-6.71,2.41-9.26h18.01c1.52,2.55,2.41,5.77,2.41,9.26Z"></path><path class="cls-4" d="M122.93,506.43c0-16.14,9.9-29.23,22.13-29.23s22.12,13.09,22.12,29.23c0,6.75-1.74,12.99-4.67,17.94h-34.88c-2.95-4.94-4.69-11.18-4.69-17.94Z"></path><path class="cls-4" d="M174.99,458.89c0,16.9-13.69,30.59-30.58,30.59s-30.59-13.69-30.59-30.59,13.69-30.58,30.59-30.58,30.58,13.69,30.58,30.58Z"></path><path class="cls-4" d="M156.04,479.72c0,8.33-5.12,15.08-11.42,15.08s-11.41-6.75-11.41-15.08c0-3.5,.89-6.71,2.41-9.26h18.01c1.51,2.55,2.42,5.76,2.42,9.26Z"></path><path class="cls-4" d="M186.19,508.03c0-16.14,9.9-29.23,22.13-29.23s22.11,13.09,22.11,29.23c0,6.77-1.74,13-4.67,17.95h-34.89c-2.94-4.95-4.68-11.18-4.68-17.95Z"></path><path class="cls-4" d="M238.26,460.5c0,16.89-13.69,30.58-30.59,30.58s-30.58-13.69-30.58-30.58,13.69-30.59,30.58-30.59,30.59,13.69,30.59,30.59Z"></path><path class="cls-4" d="M219.31,481.33c0,8.33-5.12,15.08-11.42,15.08s-11.41-6.75-11.41-15.08c0-3.49,.89-6.71,2.41-9.26h18.01c1.52,2.55,2.42,5.77,2.42,9.26Z"></path><path class="cls-4" d="M249.19,507.81c0-16.14,9.9-29.23,22.12-29.23s22.13,13.09,22.13,29.23c0,6.76-1.75,13-4.67,17.94h-34.89c-2.94-4.94-4.68-11.18-4.68-17.94Z"></path><path class="cls-4" d="M301.26,460.28c0,16.89-13.7,30.59-30.59,30.59s-30.58-13.69-30.58-30.59,13.69-30.59,30.58-30.59,30.59,13.69,30.59,30.59Z"></path><path class="cls-4" d="M282.31,481.1c0,8.33-5.11,15.08-11.42,15.08s-11.41-6.75-11.41-15.08c0-3.49,.9-6.71,2.4-9.26h18.01c1.52,2.56,2.42,5.77,2.42,9.26Z"></path><path class="cls-4" d="M312.12,506.57c0-16.14,9.91-29.23,22.13-29.23s22.11,13.09,22.11,29.23c0,6.77-1.74,13-4.67,17.94h-34.89c-2.94-4.95-4.68-11.18-4.68-17.94Z"></path><path class="cls-4" d="M364.19,459.03c0,16.9-13.7,30.59-30.58,30.59s-30.59-13.69-30.59-30.59,13.7-30.59,30.59-30.59,30.58,13.7,30.58,30.59Z"></path><path class="cls-4" d="M345.24,479.86c0,8.33-5.11,15.08-11.42,15.08s-11.41-6.75-11.41-15.08c0-3.49,.9-6.7,2.41-9.26h18.01c1.52,2.56,2.42,5.77,2.42,9.26Z"></path><path class="cls-4" d="M375.31,508.06c0-16.14,9.91-29.23,22.13-29.23s22.11,13.09,22.11,29.23c0,6.76-1.74,13-4.67,17.94h-34.89c-2.94-4.95-4.68-11.18-4.68-17.94Z"></path><path class="cls-4" d="M427.38,460.52c0,16.89-13.69,30.59-30.58,30.59s-30.59-13.69-30.59-30.59,13.7-30.58,30.59-30.58,30.58,13.69,30.58,30.58Z"></path><path class="cls-4" d="M408.43,481.35c0,8.33-5.11,15.08-11.41,15.08s-11.42-6.75-11.42-15.08c0-3.49,.9-6.7,2.42-9.26h18c1.53,2.56,2.42,5.77,2.42,9.26Z"></path><path class="cls-4" d="M438.31,507.83c0-16.14,9.91-29.23,22.13-29.23s22.12,13.09,22.12,29.23c0,6.77-1.74,13-4.67,17.95h-34.89c-2.94-4.95-4.68-11.18-4.68-17.95Z"></path><path class="cls-4" d="M490.38,460.3c0,16.89-13.7,30.59-30.59,30.59s-30.58-13.7-30.58-30.59,13.69-30.59,30.58-30.59,30.59,13.69,30.59,30.59Z"></path><path class="cls-4" d="M471.42,481.13c0,8.33-5.11,15.08-11.42,15.08s-11.41-6.75-11.41-15.08c0-3.49,.89-6.71,2.41-9.25h18.01c1.51,2.55,2.41,5.76,2.41,9.25Z"></path><path class="cls-4" d="M501.58,509.44c0-16.14,9.91-29.23,22.13-29.23s22.11,13.09,22.11,29.23c0,6.76-1.74,13-4.67,17.95h-34.89c-2.94-4.95-4.68-11.19-4.68-17.95Z"></path><path class="cls-4" d="M553.65,461.9c0,16.9-13.7,30.59-30.58,30.59s-30.59-13.69-30.59-30.59,13.69-30.58,30.59-30.58,30.58,13.69,30.58,30.58Z"></path><path class="cls-4" d="M534.69,482.74c0,8.33-5.11,15.08-11.42,15.08s-11.41-6.75-11.41-15.08c0-3.49,.89-6.71,2.4-9.26h18.01c1.52,2.55,2.42,5.77,2.42,9.26Z"></path><path class="cls-4" d="M564.58,509.22c0-16.15,9.91-29.23,22.13-29.23s22.11,13.08,22.11,29.23c0,6.76-1.74,13-4.67,17.94h-34.89c-2.95-4.94-4.69-11.18-4.69-17.94Z"></path><path class="cls-4" d="M616.65,461.68c0,16.9-13.7,30.59-30.58,30.59s-30.59-13.69-30.59-30.59,13.7-30.58,30.59-30.58,30.58,13.69,30.58,30.58Z"></path><path class="cls-4" d="M597.69,482.51c0,8.33-5.11,15.09-11.41,15.09s-11.41-6.75-11.41-15.09c0-3.49,.89-6.71,2.4-9.26h18.01c1.52,2.55,2.42,5.76,2.42,9.26Z"></path></g></g><circle class="cls-5" cx="304.1" cy="304.1" r="210.12"></circle></svg>